<svg width="49" height="48" viewBox="0 0 49 48" fill="none" xmlns="http://www.w3.org/2000/svg">
<path fill-rule="evenodd" clip-rule="evenodd" d="M24.75 0H18.75V3H12.75V6H6.75V12H3.75V18H0.75V24V30H3.75V36H6.75V42H12.75V45H18.75V48H24.75H30.75V45H36.75V42H42.75V36H45.75V30H48.75V24V18H45.75V12H42.75V6H36.75V3H30.75V0H24.75ZM33.75 9H30.75V6H33.75V9ZM18.75 39V33H21.75V27H12.75V24H15.75V21H18.75V18H21.75V15H24.75V12H27.75V9H30.75V15H27.75V21H36.75V24H33.75V27H30.75V30H27.75V33H24.75V36H21.75V39H18.75ZM18.75 39V42H15.75V39H18.75Z" fill="black"/>
</svg>
