<svg width="516" height="300" viewBox="0 0 516 300" fill="none" xmlns="http://www.w3.org/2000/svg">
<rect x="43.5" y="241.5" width="57" height="57" stroke="white" stroke-width="3"/>
<rect x="145.5" y="229.5" width="69" height="33" stroke="white" stroke-width="3"/>
<rect x="437.5" y="91.5" width="61" height="33" stroke="white" stroke-width="3"/>
<rect x="139.5" y="1.5" width="93" height="45" stroke="white" stroke-width="3"/>
<path fill-rule="evenodd" clip-rule="evenodd" d="M210 83.8809V185.881H120V83.8809H210Z" fill="white"/>
<rect x="25.5" y="31.3809" width="39" height="93" stroke="white" stroke-width="3"/>
<rect x="1.5" y="163.5" width="81" height="45" stroke="white" stroke-width="3"/>
<rect x="251.5" y="205.381" width="33" height="84" stroke="white" stroke-width="3"/>
<path fill-rule="evenodd" clip-rule="evenodd" d="M372 72H54V69H372V72Z" fill="white"/>
<rect x="373.5" y="28.5" width="33" height="57" stroke="white" stroke-width="3"/>
<rect x="457.5" y="1.5" width="45" height="45" stroke="white" stroke-width="3"/>
<rect x="379.5" y="259.5" width="71" height="39" stroke="white" stroke-width="3"/>
<rect x="475.5" y="157.5" width="39" height="111" stroke="white" stroke-width="3"/>
<path fill-rule="evenodd" clip-rule="evenodd" d="M250 246H204V243H250V246Z" fill="white"/>
<path fill-rule="evenodd" clip-rule="evenodd" d="M42 177V111H45V177H42Z" fill="white"/>
<path fill-rule="evenodd" clip-rule="evenodd" d="M486 246H276V243H486V246Z" fill="white"/>
<path fill-rule="evenodd" clip-rule="evenodd" d="M324 120V222H414V120H324Z" fill="white"/>
<path fill-rule="evenodd" clip-rule="evenodd" d="M384.219 149.881V143.881H387.219V149.881H384.219Z" fill="black"/>
<path fill-rule="evenodd" clip-rule="evenodd" d="M351.219 149.881V143.881H354.219V149.881H351.219Z" fill="black"/>
<path fill-rule="evenodd" clip-rule="evenodd" d="M369.219 152.881V149.881H372.219V152.881H369.219Z" fill="black"/>
<path fill-rule="evenodd" clip-rule="evenodd" d="M357.219 182.881V179.881H372.219V182.881H357.219Z" fill="black"/>
<path fill-rule="evenodd" clip-rule="evenodd" d="M366.219 155.881V152.881H369.219V155.881H366.219Z" fill="black"/>
<path fill-rule="evenodd" clip-rule="evenodd" d="M363.219 161.881V155.881H366.219V161.881H363.219Z" fill="black"/>
<path fill-rule="evenodd" clip-rule="evenodd" d="M360.219 170.881V161.881H363.219V170.881H360.219Z" fill="black"/>
<path fill-rule="evenodd" clip-rule="evenodd" d="M357.219 179.881V170.881H360.219V179.881H357.219Z" fill="black"/>
<path fill-rule="evenodd" clip-rule="evenodd" d="M348.219 194.881V188.881H351.219V194.881H348.219Z" fill="black"/>
<path fill-rule="evenodd" clip-rule="evenodd" d="M345.219 188.881V182.881H348.219V188.881H345.219Z" fill="black"/>
<path fill-rule="evenodd" clip-rule="evenodd" d="M351.219 197.881V194.881H354.219V197.881H351.219Z" fill="black"/>
<path fill-rule="evenodd" clip-rule="evenodd" d="M354.219 200.881V197.881H360.219V200.881H354.219Z" fill="black"/>
<path fill-rule="evenodd" clip-rule="evenodd" d="M360.219 203.881V200.881H369.219V203.881H360.219Z" fill="black"/>
<path fill-rule="evenodd" clip-rule="evenodd" d="M390.219 194.881V188.881H387.219V194.881H390.219Z" fill="black"/>
<path fill-rule="evenodd" clip-rule="evenodd" d="M393.219 188.881V182.881H390.219V188.881H393.219Z" fill="black"/>
<path fill-rule="evenodd" clip-rule="evenodd" d="M387.219 197.881V194.881H384.219V197.881H387.219Z" fill="black"/>
<path fill-rule="evenodd" clip-rule="evenodd" d="M384.219 200.881V197.881H378.219V200.881H384.219Z" fill="black"/>
<path fill-rule="evenodd" clip-rule="evenodd" d="M378.219 203.881V200.881H369.219V203.881H378.219Z" fill="black"/>
<rect x="147" y="108" width="3" height="6" fill="black"/>
<rect x="180" y="108" width="3" height="6" fill="black"/>
<rect x="159" y="123" width="6" height="3" fill="black"/>
<rect x="159" y="144" width="6" height="3" fill="black"/>
<rect x="165" y="123" width="6" height="3" fill="black"/>
<rect x="165" y="144" width="6" height="3" fill="black"/>
<rect x="171" y="126" width="6" height="3" fill="black"/>
<rect x="171" y="141" width="6" height="3" fill="black"/>
<rect x="177" y="129" width="3" height="12" fill="black"/>
<rect width="3" height="3" transform="matrix(0 1 1 0 144 156)" fill="black"/>
<rect width="6" height="3" transform="matrix(0 1 1 0 141 150)" fill="black"/>
<rect width="3" height="3" transform="matrix(0 1 1 0 183 156)" fill="black"/>
<rect width="6" height="3" transform="matrix(0 1 1 0 186 150)" fill="black"/>
<rect width="3" height="3" transform="matrix(0 1 1 0 147 159)" fill="black"/>
<rect width="3" height="3" transform="matrix(0 1 1 0 180 159)" fill="black"/>
<rect width="3" height="6" transform="matrix(0 1 1 0 174 162)" fill="black"/>
<rect width="3" height="6" transform="matrix(0 1 1 0 150 162)" fill="black"/>
<rect width="3" height="18" transform="matrix(0 1 1 0 156 165)" fill="black"/>
<rect x="171" y="84" width="3" height="6" fill="white"/>
<rect x="174" y="78" width="3" height="6" fill="white"/>
<rect x="177" y="72" width="3" height="6" fill="white"/>
<rect x="180" y="66" width="3" height="6" fill="white"/>
<rect x="183" y="60" width="3" height="6" fill="white"/>
<rect x="186" y="54" width="3" height="6" fill="white"/>
<rect x="189" y="48" width="3" height="6" fill="white"/>
<rect width="3" height="6" transform="matrix(1 0 0 -1 162 198)" fill="white"/>
<rect width="3" height="6" transform="matrix(1 0 0 -1 165 204)" fill="white"/>
<rect width="3" height="6" transform="matrix(1 0 0 -1 168 210)" fill="white"/>
<rect width="3" height="6" transform="matrix(1 0 0 -1 171 216)" fill="white"/>
<rect width="3" height="6" transform="matrix(1 0 0 -1 174 222)" fill="white"/>
<rect width="3" height="6" transform="matrix(1 0 0 -1 177 228)" fill="white"/>
<rect width="3" height="6" transform="matrix(1 0 0 -1 51 216)" fill="white"/>
<rect width="3" height="6" transform="matrix(1 0 0 -1 54 222)" fill="white"/>
<rect width="3" height="6" transform="matrix(1 0 0 -1 57 228)" fill="white"/>
<rect width="3" height="6" transform="matrix(1 0 0 -1 60 234)" fill="white"/>
<rect width="3" height="6" transform="matrix(1 0 0 -1 63 240)" fill="white"/>
<rect width="3" height="6" transform="matrix(1 0 0 -1 66 246)" fill="white"/>
<rect width="3" height="6" transform="matrix(1 0 0 -1 69 252)" fill="white"/>
<rect x="69" y="183" width="12" height="3" fill="white"/>
<rect x="81" y="180" width="12" height="3" fill="white"/>
<rect x="105" y="173.881" width="12" height="3" fill="white"/>
<rect x="117" y="170.881" width="12" height="3" fill="white"/>
<rect x="129" y="167.881" width="12" height="3" fill="white"/>
<rect x="93" y="176.881" width="12" height="3" fill="white"/>
<rect x="396" y="39" width="12" height="3" fill="white"/>
<rect x="408" y="36" width="12" height="3" fill="white"/>
<rect x="432" y="29.8809" width="12" height="3" fill="white"/>
<rect x="444" y="26.8809" width="12" height="3" fill="white"/>
<rect x="456" y="23.8809" width="12" height="3" fill="white"/>
<rect x="420" y="32.8809" width="12" height="3" fill="white"/>
<rect x="99" y="255.119" width="12" height="3" fill="white"/>
<rect x="123" y="249" width="12" height="3" fill="white"/>
<rect x="135" y="246" width="12" height="3" fill="white"/>
<rect x="147" y="243" width="12" height="3" fill="white"/>
<rect x="111" y="252" width="12" height="3" fill="white"/>
<rect width="15" height="3" transform="matrix(-1 0 0 1 321 264)" fill="white"/>
<rect width="15" height="3" transform="matrix(-1 0 0 1 306 261)" fill="white"/>
<rect width="15" height="3" transform="matrix(-1 0 0 1 291 258)" fill="white"/>
<rect width="15" height="3" transform="matrix(-1 0 0 1 336 267)" fill="white"/>
<rect width="15" height="3" transform="matrix(-1 0 0 1 381 276)" fill="white"/>
<rect width="15" height="3" transform="matrix(-1 0 0 1 366 273)" fill="white"/>
<rect width="15" height="3" transform="matrix(-1 0 0 1 351 270)" fill="white"/>
<rect width="9" height="3" transform="matrix(-1 0 0 1 390 279)" fill="white"/>
<rect x="66" y="42.1191" width="12" height="3" fill="white"/>
<rect x="54" y="45.1191" width="12" height="3" fill="white"/>
<rect x="78" y="39.1191" width="12" height="3" fill="white"/>
<rect x="102" y="33" width="12" height="3" fill="white"/>
<rect x="114" y="30" width="12" height="3" fill="white"/>
<rect x="126" y="27" width="12" height="3" fill="white"/>
<rect x="138" y="24" width="12" height="3" fill="white"/>
<rect x="90" y="36" width="12" height="3" fill="white"/>
<rect width="15" height="3" transform="matrix(-1 0 0 1 324 42)" fill="white"/>
<rect width="15" height="3" transform="matrix(-1 0 0 1 339 45)" fill="white"/>
<rect width="15" height="3" transform="matrix(-1 0 0 1 309 39)" fill="white"/>
<rect width="15" height="3" transform="matrix(-1 0 0 1 369 51)" fill="white"/>
<rect width="15" height="3" transform="matrix(-1 0 0 1 384 54)" fill="white"/>
<rect width="15" height="3" transform="matrix(-1 0 0 1 354 48)" fill="white"/>
<rect width="15" height="3" transform="matrix(-1 0 0 1 279 33)" fill="white"/>
<rect width="15" height="3" transform="matrix(-1 0 0 1 264 30)" fill="white"/>
<path d="M249 27H234V30H249V27Z" fill="white"/>
<rect width="15" height="3" transform="matrix(-1 0 0 1 234 24)" fill="white"/>
<rect width="15" height="3" transform="matrix(-1 0 0 1 294 36)" fill="white"/>
<rect width="12" height="3" transform="matrix(-1 0 0 1 474 199.881)" fill="white"/>
<rect width="12" height="3" transform="matrix(-1 0 0 1 462 196.881)" fill="white"/>
<rect width="12" height="3" transform="matrix(-1 0 0 1 450 193.881)" fill="white"/>
<rect width="12" height="3" transform="matrix(-1 0 0 1 486 202.881)" fill="white"/>
<rect width="12" height="3" transform="matrix(-1 0 0 1 426 187.762)" fill="white"/>
<rect width="12" height="3" transform="matrix(-1 0 0 1 414 184.762)" fill="white"/>
<rect width="12" height="3" transform="matrix(-1 0 0 1 438 190.762)" fill="white"/>
<rect width="12" height="3" transform="matrix(-1 0 0 1 246 141)" fill="white"/>
<rect width="12" height="3" transform="matrix(-1 0 0 1 234 138)" fill="white"/>
<rect width="12" height="3" transform="matrix(-1 0 0 1 222 135)" fill="white"/>
<rect width="12" height="3" transform="matrix(-1 0 0 1 258 144)" fill="white"/>
<rect width="12" height="3" transform="matrix(-1 0 0 1 294 153)" fill="white"/>
<rect width="12" height="3" transform="matrix(-1 0 0 1 318 159)" fill="white"/>
<rect width="12" height="3" transform="matrix(-1 0 0 1 282 150)" fill="white"/>
<rect width="12" height="3" transform="matrix(-1 0 0 1 270 147)" fill="white"/>
<rect width="12" height="3" transform="matrix(-1 0 0 1 306 156)" fill="white"/>
<rect width="12" height="3" transform="matrix(-1 0 0 1 330 162)" fill="white"/>
<rect x="366" y="126" width="3" height="6" fill="white"/>
<rect x="369" y="120" width="3" height="6" fill="white"/>
<rect x="372" y="114" width="3" height="6" fill="white"/>
<rect x="375" y="108" width="3" height="6" fill="white"/>
<rect x="378" y="102" width="3" height="6" fill="white"/>
<rect x="381" y="96" width="3" height="6" fill="white"/>
<rect x="384" y="90" width="3" height="6" fill="white"/>
<rect x="387" y="84" width="3" height="6" fill="white"/>
<rect x="390" y="78" width="3" height="6" fill="white"/>
<rect x="465" y="81" width="3" height="9" fill="white"/>
<rect x="468" y="72" width="3" height="9" fill="white"/>
<rect x="471" y="63" width="3" height="9" fill="white"/>
<rect x="474" y="54" width="3" height="9" fill="white"/>
<rect x="477" y="44.8809" width="3" height="9" fill="white"/>
<rect x="480" y="35.8809" width="3" height="9" fill="white"/>
<rect width="3" height="6" transform="matrix(-1 0 0 1 483 138)" fill="white"/>
<rect width="3" height="6" transform="matrix(-1 0 0 1 480 132)" fill="white"/>
<rect width="3" height="6" transform="matrix(-1 0 0 1 486 144)" fill="white"/>
<rect width="3" height="6" transform="matrix(-1 0 0 1 489 150)" fill="white"/>
<rect width="3" height="6" transform="matrix(-1 0 0 1 492 156)" fill="white"/>
<rect width="3" height="6" transform="matrix(-1 0 0 1 495 162)" fill="white"/>
<rect width="3" height="6" transform="matrix(-1 0 0 1 477 126)" fill="white"/>
<rect width="3" height="6" transform="matrix(-1 0 0 1 474 120)" fill="white"/>
<rect width="3" height="6" transform="matrix(-1 0 0 1 471 114)" fill="white"/>
<rect x="375" y="225" width="3" height="3" fill="white"/>
<rect x="372" y="222" width="3" height="3" fill="white"/>
<rect x="381" y="231" width="3" height="3" fill="white"/>
<rect x="378" y="228" width="3" height="3" fill="white"/>
<rect x="384" y="234" width="3" height="3" fill="white"/>
<rect x="387" y="237" width="3" height="3" fill="white"/>
<rect x="393" y="243" width="3" height="3" fill="white"/>
<rect x="390" y="240" width="3" height="3" fill="white"/>
<rect x="396" y="246" width="3" height="3" fill="white"/>
<rect x="399" y="249" width="3" height="3" fill="white"/>
<rect x="405" y="255" width="3" height="3" fill="white"/>
<rect x="402" y="252" width="3" height="3" fill="white"/>
<rect x="408" y="258" width="3" height="3" fill="white"/>
</svg>
