<svg width="49" height="45" viewBox="0 0 49 45" fill="none" xmlns="http://www.w3.org/2000/svg">
  <rect x="3.5" y="3" width="42" height="39" fill="black"/>
  <rect x="32.75" y="27" width="6" height="6" fill="white"/>
  <rect x="10.25" y="27" width="6" height="6" fill="white"/>
  <rect x="21.5" y="12.75" width="6" height="6" fill="white"/>
  <rect x="21.5" y="27" width="6" height="12" fill="white"/>
  <rect x="0.5" y="21" width="6" height="3" fill="black"/>
  <rect x="18.5" y="42" width="12" height="3" fill="black"/>
  <rect x="42.5" y="21" width="6" height="3" fill="black"/>
  <rect x="3.5" y="18" width="6" height="3" fill="black"/>
  <rect x="3.5" y="3" width="6" height="12" fill="black"/>
  <rect x="39.5" y="3" width="6" height="12" fill="black"/>
  <rect x="21.5" width="6" height="3" fill="black"/>
  <rect x="6.5" y="12" width="3" height="3" fill="white"/>
  <rect x="3.5" y="15" width="3" height="3" fill="white"/>
  <rect width="3" height="3" transform="matrix(-1 0 0 1 42.5 12)" fill="white"/>
  <rect width="3" height="3" transform="matrix(-1 0 0 1 45.5 15)" fill="white"/>
  <rect x="9.5" y="9" width="3" height="3" fill="white"/>
  <rect width="3" height="3" transform="matrix(-1 0 0 1 39.5 9)" fill="white"/>
  <rect x="12.5" y="6" width="3" height="3" fill="white"/>
  <rect width="3" height="3" transform="matrix(-1 0 0 1 36.5 6)" fill="white"/>
  <rect x="15.5" y="3" width="3" height="3" fill="white"/>
  <rect width="3" height="3" transform="matrix(-1 0 0 1 33.5 3)" fill="white"/>
  <rect x="18.5" width="3" height="3" fill="white"/>
  <rect width="3" height="3" transform="matrix(-1 0 0 1 30.5 0)" fill="white"/>
</svg>
