<svg width="169" height="168" viewBox="0 0 169 168" fill="none" xmlns="http://www.w3.org/2000/svg">
<circle opacity="0.4" cx="84.8125" cy="84" r="84" fill="url(#paint0_radial_2246_12416)"/>
<rect x="120.812" y="57" width="3" height="15" fill="black"/>
<rect x="90.8125" y="51" width="3" height="9" fill="black"/>
<rect x="102.812" y="51" width="3" height="9" fill="black"/>
<rect x="93.8125" y="48" width="9" height="3" fill="black"/>
<rect x="93.8125" y="60" width="9" height="3" fill="black"/>
<rect x="72.8125" y="57" width="3" height="15" fill="black"/>
<rect x="117.812" y="51" width="3" height="6" fill="black"/>
<rect x="111.812" y="45" width="3" height="3" fill="black"/>
<rect x="114.812" y="48" width="3" height="3" fill="black"/>
<rect x="105.812" y="42" width="6" height="3" fill="black"/>
<rect width="3" height="6" transform="matrix(1 0 0 -1 117.812 78)" fill="black"/>
<rect width="3" height="3" transform="matrix(1 0 0 -1 111.812 84)" fill="black"/>
<rect width="3" height="3" transform="matrix(1 0 0 -1 114.812 81)" fill="black"/>
<rect width="6" height="3" transform="matrix(1 0 0 -1 105.812 87)" fill="black"/>
<rect width="3" height="6" transform="matrix(-1 0 0 1 78.8125 51)" fill="black"/>
<rect width="3" height="3" transform="matrix(-1 0 0 1 84.8125 45)" fill="black"/>
<rect width="3" height="3" transform="matrix(-1 0 0 1 81.8125 48)" fill="black"/>
<rect width="6" height="3" transform="matrix(-1 0 0 1 90.8125 42)" fill="black"/>
<rect x="78.8125" y="78" width="3" height="6" transform="rotate(180 78.8125 78)" fill="black"/>
<rect x="84.8125" y="84" width="3" height="3" transform="rotate(180 84.8125 84)" fill="black"/>
<rect x="81.8125" y="81" width="3" height="3" transform="rotate(180 81.8125 81)" fill="black"/>
<rect x="90.8125" y="87" width="6" height="3" transform="rotate(180 90.8125 87)" fill="black"/>
<rect x="90.8125" y="39" width="15" height="3" fill="black"/>
<rect width="3" height="39" transform="matrix(1 0 0 -1 87.8125 123)" fill="black"/>
<rect width="3" height="3" transform="matrix(1 0 0 -1 90.8125 126)" fill="black"/>
<rect width="3" height="6" transform="matrix(1 0 0 -1 105.812 123)" fill="black"/>
<rect width="3" height="12" transform="matrix(1 0 0 -1 105.812 96)" fill="black"/>
<rect width="3" height="3" transform="matrix(1 0 0 -1 102.812 117)" fill="black"/>
<rect width="3" height="3" transform="matrix(1 0 0 -1 99.8125 114)" fill="black"/>
<rect width="3" height="3" transform="matrix(1 0 0 -1 102.812 111)" fill="black"/>
<rect width="3" height="3" transform="matrix(1 0 0 -1 105.812 108)" fill="black"/>
<rect width="3" height="3" transform="matrix(1 0 0 -1 102.812 105)" fill="black"/>
<rect width="3" height="3" transform="matrix(1 0 0 -1 99.8125 102)" fill="black"/>
<rect width="3" height="3" transform="matrix(1 0 0 -1 102.812 99)" fill="black"/>
<rect width="3" height="3" transform="matrix(1 0 0 -1 93.8125 129)" fill="black"/>
<rect width="3" height="3" transform="matrix(1 0 0 -1 99.8125 129)" fill="black"/>
<rect width="3" height="3" transform="matrix(1 0 0 -1 102.812 126)" fill="black"/>
<rect width="3" height="3" transform="matrix(1 0 0 -1 96.8125 132)" fill="black"/>
<rect width="3" height="3" transform="matrix(-1 0 0 1 48.8125 63)" fill="black"/>
<rect width="3" height="3" transform="matrix(-1 0 0 1 51.8125 60)" fill="black"/>
<rect width="3" height="3" transform="matrix(-1 0 0 1 45.8125 60)" fill="black"/>
<rect width="3" height="3" transform="matrix(-1 0 0 1 48.8125 57)" fill="black"/>
<rect x="54.8125" y="60" width="3" height="3" fill="black"/>
<rect x="60.8125" y="60" width="3" height="3" fill="black"/>
<rect x="66.8125" y="60" width="3" height="3" fill="black"/>
<rect width="3" height="3" transform="matrix(-1 0 0 1 48.8125 78)" fill="black"/>
<rect width="3" height="3" transform="matrix(-1 0 0 1 51.8125 75)" fill="black"/>
<rect width="3" height="3" transform="matrix(-1 0 0 1 45.8125 75)" fill="black"/>
<rect width="3" height="3" transform="matrix(-1 0 0 1 48.8125 72)" fill="black"/>
<rect x="54.8125" y="75" width="3" height="3" fill="black"/>
<rect x="60.8125" y="75" width="3" height="3" fill="black"/>
<rect x="66.8125" y="75" width="3" height="3" fill="black"/>
<rect width="3" height="3" transform="matrix(-1 0 0 1 48.8125 93)" fill="black"/>
<rect width="3" height="3" transform="matrix(-1 0 0 1 51.8125 90)" fill="black"/>
<rect width="3" height="3" transform="matrix(-1 0 0 1 45.8125 90)" fill="black"/>
<rect width="3" height="3" transform="matrix(-1 0 0 1 48.8125 87)" fill="black"/>
<rect x="54.8125" y="90" width="3" height="3" fill="black"/>
<rect x="60.8125" y="90" width="3" height="3" fill="black"/>
<rect x="66.8125" y="90" width="3" height="3" fill="black"/>
<rect x="72.8125" y="90" width="3" height="3" fill="black"/>
<rect x="78.8125" y="90" width="3" height="3" fill="black"/>
<rect width="3" height="3" transform="matrix(-1 0 0 1 48.8125 108)" fill="black"/>
<rect width="3" height="3" transform="matrix(-1 0 0 1 51.8125 105)" fill="black"/>
<rect width="3" height="3" transform="matrix(-1 0 0 1 45.8125 105)" fill="black"/>
<rect width="3" height="3" transform="matrix(-1 0 0 1 48.8125 102)" fill="black"/>
<rect x="54.8125" y="105" width="3" height="3" fill="black"/>
<rect x="60.8125" y="105" width="3" height="3" fill="black"/>
<rect x="66.8125" y="105" width="3" height="3" fill="black"/>
<rect x="72.8125" y="105" width="3" height="3" fill="black"/>
<rect x="78.8125" y="105" width="3" height="3" fill="black"/>
<defs>
<radialGradient id="paint0_radial_2246_12416" cx="0" cy="0" r="1" gradientUnits="userSpaceOnUse" gradientTransform="translate(84.8125 84) rotate(90) scale(84)">
<stop offset="0.5" stop-color="#89EFC4" stop-opacity="0.2"/>
<stop offset="1" stop-color="#3FE59F"/>
</radialGradient>
</defs>
</svg>
