<svg width="433" height="327" viewBox="0 0 433 327" fill="none" xmlns="http://www.w3.org/2000/svg">
<rect x="138.891" y="327" width="2.99999" height="159" transform="rotate(-90 138.891 327)" fill="black"/>
<rect width="183.001" height="3" transform="matrix(-1 0 0 1 240.891 0)" fill="black"/>
<rect x="204.891" y="144" width="3" height="75" fill="black"/>
<rect x="192.891" y="24" width="3" height="111" fill="black"/>
<rect x="54.8906" y="3" width="3" height="120" fill="black"/>
<rect x="0.890625" y="144" width="3" height="135" fill="black"/>
<rect x="3.89062" y="141" width="204" height="3" fill="black"/>
<rect x="99.8906" y="135" width="102" height="3" fill="black"/>
<rect x="6.89062" y="134.969" width="21.0312" height="3.03124" fill="black"/>
<rect x="234.891" y="144" width="3" height="3" fill="black"/>
<rect x="231.891" y="147" width="3" height="3" fill="black"/>
<rect x="237.891" y="141" width="21.043" height="3" fill="black"/>
<rect width="3" height="3" transform="matrix(-1 0 0 1 426.934 144)" fill="black"/>
<rect width="3" height="3" transform="matrix(-1 0 0 1 429.934 147)" fill="black"/>
<rect width="21.043" height="3" transform="matrix(-1 0 0 1 423.934 141)" fill="black"/>
<rect width="3" height="3" transform="matrix(-1 0 0 1 429.891 222)" fill="black"/>
<rect width="3" height="3" transform="matrix(-1 0 0 1 426.891 219)" fill="black"/>
<rect width="150" height="3" transform="matrix(-1 0 0 1 423.891 216)" fill="black"/>
<rect width="144" height="12" transform="matrix(1 0 0 -1 258.891 216)" fill="black"/>
<rect width="132" height="12" transform="matrix(1 0 0 -1 270.891 228)" fill="black"/>
<rect x="0.890625" y="279" width="54" height="3" fill="black"/>
<rect x="132.891" y="279" width="33" height="3" fill="black"/>
<rect x="315.891" y="24" width="3" height="45" fill="black"/>
<rect x="315.891" y="69" width="3" height="45" transform="rotate(-90 315.891 69)" fill="black"/>
<rect width="3" height="3" transform="matrix(-1 0 0 1 321.891 24)" fill="black"/>
<rect width="3" height="3" transform="matrix(-1 0 0 1 345.891 48)" fill="black"/>
<rect width="3" height="3" transform="matrix(-1 0 0 1 324.891 27)" fill="black"/>
<rect width="3" height="3" transform="matrix(-1 0 0 1 348.891 51)" fill="black"/>
<rect width="3" height="3" transform="matrix(-1 0 0 1 351.891 54)" fill="black"/>
<rect width="3" height="3" transform="matrix(-1 0 0 1 354.891 57)" fill="black"/>
<rect width="3" height="3" transform="matrix(-1 0 0 1 357.891 60)" fill="black"/>
<rect width="3" height="3" transform="matrix(-1 0 0 1 360.891 63)" fill="black"/>
<rect width="3" height="3" transform="matrix(-1 0 0 1 327.891 30)" fill="black"/>
<rect width="3" height="3" transform="matrix(-1 0 0 1 330.891 33)" fill="black"/>
<rect width="3" height="3" transform="matrix(-1 0 0 1 333.891 36)" fill="black"/>
<rect width="3" height="3" transform="matrix(-1 0 0 1 336.891 39)" fill="black"/>
<rect width="3" height="3" transform="matrix(-1 0 0 1 339.891 42)" fill="black"/>
<rect width="3" height="3" transform="matrix(-1 0 0 1 342.891 45)" fill="black"/>
<path d="M192.891 24H316.891V27H192.891V24Z" fill="black"/>
<rect x="357.891" y="66" width="3.00048" height="27" fill="black"/>
<rect x="429.891" y="150" width="3" height="57" fill="black"/>
<rect x="429.891" y="228" width="3" height="53" fill="black"/>
<rect x="273.891" y="279" width="159" height="3" fill="black"/>
<rect x="273.891" y="225" width="159" height="3" fill="black"/>
<rect x="228.891" y="150" width="3" height="57" fill="black"/>
<rect x="228.891" y="204" width="204" height="3" fill="black"/>
<rect x="189.891" y="261.021" width="3" height="5.97859" fill="black"/>
<rect x="186.891" y="249.012" width="3" height="11.9893" fill="black"/>
<rect x="195.891" y="270" width="6" height="3" fill="black"/>
<rect x="192.891" y="267" width="3" height="3" fill="black"/>
<rect x="204.891" y="234" width="3" height="6" fill="black"/>
<rect x="228.891" y="234" width="3" height="6" fill="black"/>
<rect x="201.891" y="273" width="6" height="3" fill="black"/>
<rect width="3" height="5.97859" transform="matrix(-1 0 0 1 246.895 261)" fill="black"/>
<rect width="3" height="11.9893" transform="matrix(-1 0 0 1 249.895 248.969)" fill="black"/>
<rect width="6" height="3" transform="matrix(-1 0 0 1 240.895 269.969)" fill="black"/>
<rect width="3" height="3" transform="matrix(-1 0 0 1 243.895 266.969)" fill="black"/>
<rect width="6" height="3" transform="matrix(-1 0 0 1 234.895 272.969)" fill="black"/>
<rect x="207.891" y="275.996" width="21" height="3" transform="rotate(-0.0773959 207.891 275.996)" fill="black"/>
<rect x="159.891" y="294" width="3" height="3" fill="black"/>
<rect x="156.891" y="297" width="3" height="3" fill="black"/>
<rect x="153.891" y="300" width="3" height="3" fill="black"/>
<rect x="150.891" y="303" width="3" height="3" fill="black"/>
<rect x="147.891" y="306" width="3" height="3" fill="black"/>
<rect x="144.891" y="309" width="3" height="3" fill="black"/>
<rect x="141.891" y="312" width="3" height="3" fill="black"/>
<rect x="138.891" y="315" width="3" height="3" fill="black"/>
<rect x="135.891" y="318" width="3" height="6" fill="black"/>
<rect width="3" height="3" transform="matrix(-1 0 0 1 276.891 294)" fill="black"/>
<rect width="3" height="3" transform="matrix(-1 0 0 1 279.891 297)" fill="black"/>
<rect width="3" height="3" transform="matrix(-1 0 0 1 282.891 300)" fill="black"/>
<rect width="3" height="3" transform="matrix(-1 0 0 1 285.891 303)" fill="black"/>
<rect width="3" height="3" transform="matrix(-1 0 0 1 288.891 306)" fill="black"/>
<rect width="3" height="3" transform="matrix(-1 0 0 1 291.891 309)" fill="black"/>
<rect width="3" height="3" transform="matrix(-1 0 0 1 294.891 312)" fill="black"/>
<rect width="3" height="3" transform="matrix(-1 0 0 1 297.891 315)" fill="black"/>
<rect width="3" height="6" transform="matrix(-1 0 0 1 300.891 318)" fill="black"/>
<rect x="207.891" y="297" width="3" height="3" fill="black"/>
<rect x="207.891" y="303" width="3" height="3" fill="black"/>
<rect x="195.891" y="297" width="3" height="3" fill="black"/>
<rect x="195.891" y="303" width="3" height="3" fill="black"/>
<rect x="231.891" y="297" width="3" height="3" fill="black"/>
<rect x="231.891" y="303" width="3" height="3" fill="black"/>
<rect x="243.891" y="297" width="3" height="3" fill="black"/>
<rect x="243.891" y="303" width="3" height="3" fill="black"/>
<rect x="177.891" y="297" width="3" height="3" fill="black"/>
<rect x="177.891" y="303" width="3" height="3" fill="black"/>
<rect x="177.891" y="309" width="3" height="3" fill="black"/>
<rect x="171.891" y="303" width="3" height="3" fill="black"/>
<rect x="171.891" y="309" width="3" height="3" fill="black"/>
<rect x="165.891" y="309" width="3" height="3" fill="black"/>
<rect x="213.891" y="297" width="3" height="3" fill="black"/>
<rect x="213.891" y="303" width="3" height="3" fill="black"/>
<rect x="201.891" y="297" width="3" height="3" fill="black"/>
<rect x="201.891" y="303" width="3" height="3" fill="black"/>
<rect x="237.891" y="297" width="3" height="3" fill="black"/>
<rect x="237.891" y="303" width="3" height="3" fill="black"/>
<rect x="249.891" y="297" width="3" height="3" fill="black"/>
<rect x="249.891" y="303" width="3" height="3" fill="black"/>
<rect x="249.891" y="309" width="3" height="3" fill="black"/>
<rect x="255.891" y="297" width="3" height="3" fill="black"/>
<rect x="255.891" y="303" width="3" height="3" fill="black"/>
<rect x="255.891" y="309" width="3" height="3" fill="black"/>
<rect x="261.891" y="303" width="3" height="3" fill="black"/>
<rect x="261.891" y="309" width="3" height="3" fill="black"/>
<rect x="267.891" y="309" width="3" height="3" fill="black"/>
<rect x="183.891" y="297" width="3" height="3" fill="black"/>
<rect x="183.891" y="303" width="3" height="3" fill="black"/>
<rect x="183.891" y="309" width="3" height="3" fill="black"/>
<rect x="219.891" y="297" width="3" height="3" fill="black"/>
<rect x="219.891" y="303" width="3" height="3" fill="black"/>
<rect x="189.891" y="297" width="3" height="3" fill="black"/>
<rect x="189.891" y="303" width="3" height="3" fill="black"/>
<rect x="225.891" y="297" width="3" height="3" fill="black"/>
<rect x="225.891" y="303" width="3" height="3" fill="black"/>
<rect x="162.891" y="218.822" width="3" height="72.1764" fill="black"/>
<rect x="165.891" y="216" width="105" height="3" fill="black"/>
<rect x="162.891" y="291" width="111" height="3" fill="black"/>
<rect x="270.891" y="218.82" width="3" height="72.1764" fill="black"/>
<rect width="3.00048" height="2.99999" transform="matrix(-1 0 0 1 6.89062 138)" fill="black"/>
<rect width="3" height="2.99999" transform="matrix(-1 0 0 1 204.891 138)" fill="black"/>
<rect x="39.8906" y="120" width="48" height="3" fill="black"/>
<rect width="3" height="3" transform="matrix(-1 0 0 1 39.8906 123)" fill="black"/>
<rect width="3" height="3" transform="matrix(-1 0 0 1 36.8906 126)" fill="black"/>
<rect width="3" height="3" transform="matrix(-1 0 0 1 33.8906 129)" fill="black"/>
<rect width="3" height="3" transform="matrix(-1 0 0 1 30.8906 132)" fill="black"/>
<rect x="87.8906" y="123" width="3" height="3" fill="black"/>
<rect x="90.8906" y="126" width="3" height="3" fill="black"/>
<rect x="93.8906" y="129" width="3" height="3" fill="black"/>
<rect x="96.8906" y="132" width="3" height="3" fill="black"/>
<rect x="228.891" y="150" width="72" height="3" fill="black"/>
<rect x="360.891" y="150" width="72" height="3" fill="black"/>
<rect x="297.891" y="153" width="3" height="27" fill="black"/>
<rect x="360.891" y="153" width="3" height="27" fill="black"/>
<rect x="300.891" y="180" width="3" height="3" fill="black"/>
<rect x="357.891" y="180" width="3" height="3" fill="black"/>
<rect x="303.891" y="183" width="54" height="3" fill="black"/>
<rect x="255.891" y="90" width="3.0439" height="63" fill="black"/>
<rect x="399.891" y="90" width="3" height="63" fill="black"/>
<rect x="56.8906" y="188" width="77" height="17" fill="black" stroke="black" stroke-width="4"/>
<rect width="77.9988" height="3" transform="matrix(-1 0 0 1 132.891 285)" fill="black"/>
<rect width="3" height="99.0002" transform="matrix(-1 0 0 1 57.8906 189)" fill="black"/>
<rect width="3" height="99" transform="matrix(-1 0 0 1 135.891 189)" fill="black"/>
<rect width="3" height="12" transform="matrix(-1 0 0 1 72.9453 180)" fill="black"/>
<rect width="3" height="6" transform="matrix(-1 0 0 1 69.8906 186)" fill="white"/>
<rect width="3" height="6" transform="matrix(-1 0 0 1 75.8906 186)" fill="white"/>
<rect width="3" height="3" transform="matrix(-1 0 0 1 72.8906 192)" fill="white"/>
<rect width="3" height="12" transform="matrix(-1 0 0 1 120.945 180)" fill="black"/>
<rect width="3" height="6" transform="matrix(-1 0 0 1 117.891 186)" fill="white"/>
<rect width="3" height="6" transform="matrix(-1 0 0 1 123.891 186)" fill="white"/>
<rect width="3" height="3" transform="matrix(-1 0 0 1 120.891 192)" fill="white"/>
<rect x="90.8906" y="231" width="3" height="12" fill="black"/>
<rect x="93.8906" y="249" width="3" height="9" fill="black"/>
<rect x="75.8906" y="231" width="3" height="2.99999" fill="black"/>
<rect x="105.891" y="231" width="3" height="2.99999" fill="black"/>
<rect x="102.891" y="234" width="3" height="2.99999" fill="black"/>
<rect x="90.8906" y="246" width="3" height="2.99999" fill="black"/>
<rect x="90.8906" y="258" width="3" height="2.99999" fill="black"/>
<rect x="75.8906" y="258" width="3" height="2.99999" fill="black"/>
<rect x="72.8906" y="255" width="3" height="2.99999" fill="black"/>
<rect x="108.891" y="228" width="3" height="35.9999" fill="black"/>
<rect x="78.8906" y="261" width="12" height="3" fill="black"/>
<rect x="78.8906" y="243" width="12" height="3" fill="black"/>
<rect x="78.8906" y="228" width="12" height="3" fill="black"/>
<rect x="300.891" y="131.625" width="3.37479" height="10.125" transform="rotate(180 300.891 131.625)" fill="black"/>
<rect x="300.891" y="135" width="27" height="27" transform="rotate(180 300.891 135)" fill="black"/>
<rect x="279.891" y="121.426" width="3" height="3" fill="white"/>
<rect x="282.891" y="124.5" width="3" height="3" fill="white"/>
<rect x="285.891" y="121.426" width="3" height="3" fill="white"/>
<rect x="288.891" y="118.5" width="3" height="3" fill="white"/>
<rect x="291.891" y="115.5" width="3" height="3" fill="white"/>
<rect x="312.891" y="114" width="72" height="3" fill="black"/>
<rect x="255.891" y="90" width="147" height="3" fill="black"/>
<rect x="312.891" y="125.926" width="60" height="3" fill="black"/>
<rect width="3" height="21" transform="matrix(-1 0 0 1 244.035 3)" fill="black"/>
<rect x="189.891" y="309" width="57" height="3" fill="black"/>
<rect width="99" height="72" transform="matrix(-1 0 0 1 174.891 33)" fill="black"/>
<rect x="96.8906" y="78" width="3" height="3" fill="white"/>
<rect x="99.8906" y="81" width="3" height="3" fill="white"/>
<rect x="102.891" y="84" width="3" height="3" fill="white"/>
<rect x="105.891" y="87" width="3" height="3" fill="white"/>
<rect x="108.891" y="90" width="3" height="3" fill="white"/>
<rect width="3" height="3" transform="matrix(-1 0 0 1 120.891 81)" fill="white"/>
<rect width="3" height="3" transform="matrix(-1 0 0 1 117.891 84)" fill="white"/>
<rect width="3" height="3" transform="matrix(-1 0 0 1 114.891 87)" fill="white"/>
<rect width="3" height="3" transform="matrix(-1 0 0 1 111.891 90)" fill="white"/>
<rect width="3" height="3" transform="matrix(-1 0 0 1 132.891 69)" fill="white"/>
<rect width="3" height="3" transform="matrix(-1 0 0 1 135.891 66)" fill="white"/>
<rect width="3" height="3" transform="matrix(-1 0 0 1 129.891 72)" fill="white"/>
<rect width="3" height="3" transform="matrix(-1 0 0 1 126.891 75)" fill="white"/>
<rect width="3" height="3" transform="matrix(-1 0 0 1 123.891 78)" fill="white"/>
<rect x="135.891" y="63" width="3" height="3" fill="white"/>
<rect x="138.891" y="66" width="3" height="3" fill="white"/>
<rect x="141.891" y="69" width="3" height="3" fill="white"/>
<rect x="144.891" y="72" width="3" height="3" fill="white"/>
<rect x="147.891" y="75" width="3" height="3" fill="white"/>
<rect x="150.891" y="78" width="3" height="3" fill="white"/>
<rect x="153.891" y="81" width="3" height="3" fill="white"/>
<rect x="156.891" y="84" width="3" height="3" fill="white"/>
<rect x="159.891" y="87" width="3" height="3" fill="white"/>
<rect x="162.891" y="90" width="3" height="3" fill="white"/>
<rect x="165.891" y="93" width="3" height="3" fill="white"/>
<rect x="168.891" y="96" width="3" height="3" fill="white"/>
<rect x="171.891" y="99" width="3" height="3" fill="white"/>
<rect x="87.8906" y="87" width="3" height="3" fill="white"/>
<rect x="93.8906" y="81" width="3" height="3" fill="white"/>
<rect x="90.8906" y="84" width="3" height="3" fill="white"/>
<rect x="81.8906" y="93" width="3" height="3" fill="white"/>
<rect x="78.8906" y="96" width="3" height="3" fill="white"/>
<rect x="75.8906" y="99" width="3" height="3" fill="white"/>
<rect x="84.8906" y="90" width="3" height="3" fill="white"/>
<path d="M108.891 48H114.891V60H108.891V48Z" fill="white"/>
<path d="M105.891 57V51H117.891V57H105.891Z" fill="white"/>
<rect x="300.891" y="249" width="60" height="3" fill="black"/>
<rect x="297.891" y="243" width="3" height="6" fill="#010101"/>
<rect x="360.891" y="243" width="3" height="6" fill="#010101"/>
</svg>
