<svg width="288" height="289" viewBox="0 0 288 289" fill="none" xmlns="http://www.w3.org/2000/svg">
  <rect x="8" y="20.2754" width="272" height="56" rx="16" fill="#242424"/>
  <rect x="8" y="84.2754" width="272" height="56" rx="16" fill="#242424"/>
  <rect x="8" y="148.275" width="272" height="56" rx="16" fill="#242424"/>
  <rect x="8" y="212.275" width="272" height="56" rx="16" fill="#242424"/>
  <path d="M40.7188 47.0254H35.25C34.7527 47.0254 34.2758 46.8278 33.9242 46.4762C33.5725 46.1246 33.375 45.6477 33.375 45.1504V39.6816C33.375 39.6402 33.3585 39.6005 33.3292 39.5712C33.2999 39.5419 33.2602 39.5254 33.2188 39.5254H29.625C28.962 39.5254 28.3261 39.7888 27.8572 40.2576C27.3884 40.7265 27.125 41.3623 27.125 42.0254V54.5254C27.125 55.1884 27.3884 55.8243 27.8572 56.2932C28.3261 56.762 28.962 57.0254 29.625 57.0254H38.375C39.038 57.0254 39.6739 56.762 40.1428 56.2932C40.6116 55.8243 40.875 55.1884 40.875 54.5254V47.1816C40.875 47.1402 40.8585 47.1005 40.8292 47.0712C40.7999 47.0419 40.7602 47.0254 40.7188 47.0254Z" fill="#2AA7EE"/>
  <path d="M40.3758 45.6423L34.7582 40.0247C34.7473 40.0138 34.7334 40.0064 34.7183 40.0034C34.7032 40.0004 34.6875 40.002 34.6733 40.0079C34.659 40.0138 34.6469 40.0237 34.6383 40.0365C34.6297 40.0493 34.6251 40.0643 34.625 40.0798V45.1505C34.625 45.3162 34.6908 45.4752 34.8081 45.5924C34.9253 45.7096 35.0842 45.7755 35.25 45.7755H40.3207C40.3361 45.7754 40.3511 45.7708 40.3639 45.7622C40.3767 45.7536 40.3867 45.7414 40.3926 45.7272C40.3985 45.7129 40.4 45.6973 40.397 45.6822C40.394 45.6671 40.3866 45.6532 40.3758 45.6423Z" fill="#2AA7EE"/>
  <path d="M34 112.275C33.4738 112.275 32.9477 112.182 32.5375 111.995L26.7562 109.359C26.4918 109.239 25.875 108.887 25.875 108.222C25.875 107.558 26.4918 107.207 26.757 107.085L32.5883 104.426C33.3918 104.059 34.6043 104.059 35.4082 104.426L41.243 107.085C41.5082 107.205 42.125 107.557 42.125 108.222C42.125 108.887 41.5082 109.238 41.243 109.359L35.4617 111.995C35.0523 112.182 34.5262 112.275 34 112.275Z" fill="#3E58EB"/>
  <path d="M41.2406 111.135L40.6512 110.869L39.1367 111.562L35.4648 113.242C35.0547 113.429 34.5273 113.523 34.0023 113.523C33.4773 113.523 32.9504 113.429 32.5406 113.242L28.866 111.562L27.3512 110.869L26.7566 111.136C26.4918 111.257 25.875 111.611 25.875 112.275C25.875 112.939 26.4918 113.294 26.7562 113.415L32.5375 116.057C32.9453 116.244 33.4723 116.338 34 116.338C34.5277 116.338 35.0523 116.244 35.4625 116.057L41.2387 113.416C41.5047 113.295 42.125 112.943 42.125 112.275C42.125 111.608 41.509 111.257 41.2406 111.135Z" fill="#3E58EB"/>
  <path d="M41.2406 115.197L40.6512 114.932L39.1367 115.624L35.4648 117.302C35.0547 117.489 34.5273 117.582 34.0023 117.582C33.4773 117.582 32.9504 117.489 32.5406 117.302L28.866 115.622L27.3512 114.932L26.7566 115.199C26.4918 115.32 25.875 115.674 25.875 116.338C25.875 117.002 26.4918 117.356 26.7562 117.477L32.5375 120.117C32.9453 120.304 33.4742 120.4 34 120.4C34.5258 120.4 35.05 120.304 35.4602 120.116L41.2383 117.477C41.5047 117.357 42.125 117.004 42.125 116.338C42.125 115.671 41.509 115.32 41.2406 115.197Z" fill="#3E58EB"/>
  <path d="M39.625 168.15H28.375C27.7122 168.151 27.0767 168.415 26.608 168.883C26.1393 169.352 25.8757 169.988 25.875 170.65V181.9C25.8757 182.563 26.1393 183.199 26.608 183.667C27.0767 184.136 27.7122 184.4 28.375 184.4H39.625C40.2878 184.4 40.9233 184.136 41.392 183.667C41.8607 183.199 42.1243 182.563 42.125 181.9V170.65C42.1243 169.988 41.8607 169.352 41.392 168.883C40.9233 168.415 40.2878 168.151 39.625 168.15ZM38.2285 173.552L32.9785 179.802C32.9209 179.871 32.8493 179.926 32.7684 179.965C32.6875 180.003 32.5993 180.024 32.5098 180.025H32.4992C32.4116 180.025 32.325 180.007 32.245 179.971C32.165 179.936 32.0933 179.883 32.0348 179.818L29.7848 177.318C29.7276 177.258 29.6832 177.186 29.654 177.108C29.6249 177.03 29.6116 176.947 29.615 176.864C29.6185 176.781 29.6385 176.699 29.6739 176.624C29.7094 176.548 29.7595 176.481 29.8214 176.425C29.8834 176.369 29.9558 176.327 30.0345 176.299C30.1132 176.272 30.1965 176.261 30.2796 176.266C30.3628 176.271 30.444 176.293 30.5185 176.33C30.5931 176.368 30.6594 176.419 30.7137 176.482L32.4828 178.448L37.2715 172.748C37.3789 172.624 37.5309 172.547 37.6945 172.534C37.8582 172.521 38.0205 172.573 38.1462 172.679C38.2719 172.784 38.351 172.935 38.3664 173.099C38.3818 173.262 38.3323 173.425 38.2285 173.552Z" fill="#5DD400"/>
  <path d="M39.625 249.025C39.4721 249.026 39.3244 248.97 39.2098 248.869L34 244.237L28.7902 248.869C28.7001 248.949 28.5887 249.002 28.4694 249.02C28.3502 249.038 28.2282 249.021 28.1182 248.972C28.0083 248.922 27.915 248.842 27.8496 248.741C27.7843 248.639 27.7497 248.521 27.75 248.4V234.025C27.7507 233.363 28.0144 232.727 28.483 232.258C28.9517 231.79 29.5872 231.526 30.25 231.525H37.75C38.4128 231.526 39.0483 231.79 39.517 232.258C39.9857 232.727 40.2493 233.363 40.25 234.025V248.4C40.25 248.566 40.1842 248.725 40.0669 248.842C39.9497 248.96 39.7908 249.025 39.625 249.025Z" fill="#F55522"/>
  <path d="M57.2784 54.2754V42.639H61.4261C62.3314 42.639 63.0814 42.8038 63.6761 43.1333C64.2708 43.4629 64.7159 43.9136 65.0114 44.4856C65.3068 45.0538 65.4545 45.694 65.4545 46.4061C65.4545 47.122 65.3049 47.7659 65.0057 48.3379C64.7102 48.9061 64.2633 49.3568 63.6648 49.6902C63.0701 50.0197 62.322 50.1845 61.4205 50.1845H58.5682V48.6958H61.2614C61.8333 48.6958 62.2973 48.5974 62.6534 48.4004C63.0095 48.1996 63.2708 47.9269 63.4375 47.5822C63.6042 47.2375 63.6875 46.8455 63.6875 46.4061C63.6875 45.9667 63.6042 45.5765 63.4375 45.2356C63.2708 44.8947 63.0076 44.6277 62.6477 44.4345C62.2917 44.2413 61.822 44.1447 61.2386 44.1447H59.0341V54.2754H57.2784ZM69.5981 54.4686C69.045 54.4686 68.545 54.3663 68.0981 54.1618C67.6511 53.9534 67.2969 53.6523 67.0356 53.2583C66.778 52.8644 66.6492 52.3815 66.6492 51.8095C66.6492 51.3171 66.7439 50.9118 66.9333 50.5936C67.1227 50.2754 67.3784 50.0235 67.7003 49.8379C68.0223 49.6523 68.3822 49.5121 68.7799 49.4174C69.1776 49.3227 69.5829 49.2508 69.9958 49.2015C70.5185 49.1409 70.9428 49.0917 71.2685 49.0538C71.5943 49.0121 71.831 48.9458 71.9788 48.8549C72.1265 48.764 72.2003 48.6163 72.2003 48.4118V48.372C72.2003 47.8758 72.0602 47.4913 71.7799 47.2186C71.5034 46.9458 71.0905 46.8095 70.5413 46.8095C69.9693 46.8095 69.5185 46.9364 69.189 47.1902C68.8632 47.4402 68.6378 47.7186 68.5128 48.0254L66.9163 47.6618C67.1056 47.1315 67.3822 46.7034 67.7458 46.3777C68.1132 46.0481 68.5356 45.8095 69.0128 45.6618C69.4901 45.5102 69.992 45.4345 70.5185 45.4345C70.867 45.4345 71.2363 45.4761 71.6265 45.5595C72.0204 45.639 72.3878 45.7868 72.7288 46.0027C73.0734 46.2186 73.3556 46.5273 73.5753 46.9288C73.795 47.3265 73.9049 47.8436 73.9049 48.4799V54.2754H72.2458V53.0822H72.1776C72.0678 53.3019 71.903 53.5178 71.6833 53.7299C71.4636 53.9421 71.1814 54.1182 70.8367 54.2583C70.492 54.3985 70.0791 54.4686 69.5981 54.4686ZM69.9674 53.1049C70.4371 53.1049 70.8386 53.0121 71.1719 52.8265C71.5091 52.6409 71.7647 52.3985 71.939 52.0993C72.117 51.7962 72.206 51.4724 72.206 51.1277V50.0027C72.1454 50.0633 72.028 50.1201 71.8538 50.1731C71.6833 50.2224 71.4882 50.2659 71.2685 50.3038C71.0488 50.3379 70.8348 50.3701 70.6265 50.4004C70.4181 50.4269 70.2439 50.4496 70.1038 50.4686C69.7742 50.5102 69.4731 50.5803 69.2003 50.6788C68.9314 50.7773 68.7155 50.9193 68.5526 51.1049C68.3935 51.2868 68.314 51.5292 68.314 51.8322C68.314 52.2527 68.4693 52.5708 68.7799 52.7868C69.0905 52.9989 69.4863 53.1049 69.9674 53.1049ZM79.5868 57.7299C78.8936 57.7299 78.297 57.639 77.797 57.4572C77.3008 57.2754 76.8955 57.0349 76.5811 56.7356C76.2667 56.4364 76.0318 56.1087 75.8765 55.7527L77.3368 55.1504C77.439 55.3171 77.5754 55.4932 77.7459 55.6788C77.9201 55.8682 78.1549 56.0292 78.4504 56.1618C78.7496 56.2943 79.1341 56.3606 79.6038 56.3606C80.2477 56.3606 80.7799 56.2034 81.2004 55.889C81.6209 55.5784 81.8311 55.0822 81.8311 54.4004V52.6845H81.7231C81.6209 52.8701 81.4731 53.0765 81.2799 53.3038C81.0905 53.5311 80.8292 53.728 80.4959 53.8947C80.1625 54.0614 79.7288 54.1447 79.1947 54.1447C78.5053 54.1447 77.8841 53.9837 77.3311 53.6618C76.7818 53.336 76.3462 52.8568 76.0243 52.2243C75.7061 51.5879 75.547 50.8057 75.547 49.8777C75.547 48.9496 75.7042 48.1542 76.0186 47.4913C76.3368 46.8284 76.7724 46.3208 77.3254 45.9686C77.8784 45.6125 78.5053 45.4345 79.2061 45.4345C79.7477 45.4345 80.1852 45.5254 80.5186 45.7072C80.8519 45.8852 81.1114 46.0936 81.297 46.3322C81.4864 46.5708 81.6322 46.7811 81.7345 46.9629H81.8595V45.5481H83.5243V54.4686C83.5243 55.2186 83.35 55.8341 83.0015 56.3152C82.653 56.7962 82.1815 57.1523 81.5868 57.3833C80.9959 57.6144 80.3292 57.7299 79.5868 57.7299ZM79.5697 52.7356C80.0584 52.7356 80.4712 52.622 80.8084 52.3947C81.1493 52.1636 81.4068 51.8341 81.5811 51.4061C81.7591 50.9743 81.8481 50.4572 81.8481 49.8549C81.8481 49.2678 81.761 48.7508 81.5868 48.3038C81.4125 47.8568 81.1568 47.5083 80.8197 47.2583C80.4826 47.0046 80.0659 46.8777 79.5697 46.8777C79.0584 46.8777 78.6322 47.0102 78.2913 47.2754C77.9504 47.5368 77.6928 47.8928 77.5186 48.3436C77.3481 48.7943 77.2629 49.2981 77.2629 49.8549C77.2629 50.4269 77.35 50.9288 77.5243 51.3606C77.6985 51.7924 77.9561 52.1296 78.297 52.372C78.6417 52.6144 79.0659 52.7356 79.5697 52.7356ZM89.324 54.4515C88.4642 54.4515 87.7237 54.2678 87.1024 53.9004C86.485 53.5292 86.0077 53.0083 85.6706 52.3379C85.3373 51.6636 85.1706 50.8739 85.1706 49.9686C85.1706 49.0746 85.3373 48.2868 85.6706 47.6049C86.0077 46.9231 86.4774 46.3909 87.0797 46.0083C87.6858 45.6258 88.3941 45.4345 89.2047 45.4345C89.6971 45.4345 90.1744 45.5159 90.6365 45.6788C91.0987 45.8417 91.5134 46.0974 91.8809 46.4458C92.2483 46.7943 92.5381 47.247 92.7502 47.8038C92.9623 48.3568 93.0684 49.0292 93.0684 49.8208V50.4231H86.1309V49.1504H91.4036C91.4036 48.7034 91.3127 48.3076 91.1309 47.9629C90.949 47.6144 90.6934 47.3398 90.3638 47.139C90.0381 46.9383 89.6555 46.8379 89.2161 46.8379C88.7388 46.8379 88.3221 46.9553 87.9661 47.1902C87.6138 47.4212 87.3411 47.7243 87.1479 48.0993C86.9585 48.4705 86.8638 48.8739 86.8638 49.3095V50.3038C86.8638 50.8871 86.9661 51.3833 87.1706 51.7924C87.379 52.2015 87.6687 52.514 88.0399 52.7299C88.4112 52.9421 88.8449 53.0481 89.3411 53.0481C89.6631 53.0481 89.9566 53.0027 90.2218 52.9118C90.4869 52.8171 90.7161 52.6769 90.9093 52.4913C91.1024 52.3057 91.2502 52.0765 91.3524 51.8038L92.9604 52.0936C92.8316 52.5671 92.6006 52.9818 92.2672 53.3379C91.9377 53.6902 91.5229 53.9648 91.0229 54.1618C90.5267 54.3549 89.9604 54.4515 89.324 54.4515ZM101.253 47.6788L99.7133 47.9515C99.6489 47.7546 99.5466 47.5671 99.4065 47.389C99.2701 47.211 99.0845 47.0652 98.8497 46.9515C98.6148 46.8379 98.3213 46.7811 97.969 46.7811C97.4879 46.7811 97.0864 46.889 96.7644 47.1049C96.4425 47.3171 96.2815 47.5917 96.2815 47.9288C96.2815 48.2205 96.3894 48.4553 96.6053 48.6333C96.8213 48.8114 97.1697 48.9572 97.6508 49.0708L99.0372 49.389C99.8402 49.5746 100.439 49.8606 100.833 50.247C101.227 50.6333 101.424 51.1352 101.424 51.7527C101.424 52.2754 101.272 52.7413 100.969 53.1504C100.67 53.5557 100.251 53.8739 99.7133 54.1049C99.1792 54.336 98.5599 54.4515 97.8553 54.4515C96.8781 54.4515 96.0807 54.2432 95.4633 53.8265C94.8459 53.4061 94.4671 52.8095 94.3269 52.0368L95.969 51.7868C96.0713 52.2148 96.2815 52.5386 96.5997 52.7583C96.9178 52.9743 97.3326 53.0822 97.844 53.0822C98.4008 53.0822 98.8459 52.9667 99.1792 52.7356C99.5125 52.5008 99.6792 52.2148 99.6792 51.8777C99.6792 51.6049 99.5769 51.3758 99.3724 51.1902C99.1716 51.0046 98.8629 50.8644 98.4463 50.7697L96.969 50.4458C96.1546 50.2602 95.5523 49.9648 95.1622 49.5595C94.7758 49.1542 94.5826 48.6409 94.5826 48.0197C94.5826 47.5046 94.7266 47.0538 95.0144 46.6674C95.3023 46.2811 95.7 45.9799 96.2076 45.764C96.7152 45.5443 97.2966 45.4345 97.9519 45.4345C98.8951 45.4345 99.6375 45.639 100.179 46.0481C100.721 46.4534 101.079 46.997 101.253 47.6788Z" fill="white"/>
  <path d="M57.2784 118.275V106.639H59.0341V116.764H64.3068V118.275H57.2784ZM65.9333 118.275V109.548H67.6322V118.275H65.9333ZM66.7913 108.202C66.4958 108.202 66.242 108.103 66.0299 107.906C65.8216 107.705 65.7174 107.467 65.7174 107.19C65.7174 106.91 65.8216 106.671 66.0299 106.474C66.242 106.273 66.4958 106.173 66.7913 106.173C67.0867 106.173 67.3386 106.273 67.5469 106.474C67.7591 106.671 67.8651 106.91 67.8651 107.19C67.8651 107.467 67.7591 107.705 67.5469 107.906C67.3386 108.103 67.0867 108.202 66.7913 108.202ZM76.2174 111.679L74.6777 111.952C74.6133 111.755 74.511 111.567 74.3709 111.389C74.2345 111.211 74.0489 111.065 73.814 110.952C73.5792 110.838 73.2856 110.781 72.9334 110.781C72.4523 110.781 72.0508 110.889 71.7288 111.105C71.4068 111.317 71.2459 111.592 71.2459 111.929C71.2459 112.22 71.3538 112.455 71.5697 112.633C71.7856 112.811 72.1341 112.957 72.6152 113.071L74.0015 113.389C74.8046 113.575 75.4031 113.861 75.797 114.247C76.1909 114.633 76.3879 115.135 76.3879 115.753C76.3879 116.275 76.2364 116.741 75.9334 117.15C75.6341 117.556 75.2155 117.874 74.6777 118.105C74.1436 118.336 73.5243 118.452 72.8197 118.452C71.8424 118.452 71.0451 118.243 70.4277 117.827C69.8102 117.406 69.4315 116.809 69.2913 116.037L70.9334 115.787C71.0356 116.215 71.2459 116.539 71.564 116.758C71.8822 116.974 72.297 117.082 72.8084 117.082C73.3652 117.082 73.8102 116.967 74.1436 116.736C74.4769 116.501 74.6436 116.215 74.6436 115.878C74.6436 115.605 74.5413 115.376 74.3368 115.19C74.136 115.005 73.8273 114.864 73.4106 114.77L71.9334 114.446C71.119 114.26 70.5167 113.965 70.1265 113.559C69.7402 113.154 69.547 112.641 69.547 112.02C69.547 111.505 69.6909 111.054 69.9788 110.667C70.2667 110.281 70.6644 109.98 71.172 109.764C71.6796 109.544 72.261 109.434 72.9163 109.434C73.8595 109.434 74.6019 109.639 75.1436 110.048C75.6852 110.453 76.0432 110.997 76.2174 111.679ZM82.0897 109.548V110.912H77.3226V109.548H82.0897ZM78.601 107.457H80.2999V115.713C80.2999 116.042 80.3491 116.291 80.4476 116.457C80.5461 116.62 80.673 116.732 80.8283 116.792C80.9874 116.849 81.1597 116.878 81.3453 116.878C81.4817 116.878 81.601 116.868 81.7033 116.849C81.8056 116.83 81.8851 116.815 81.9419 116.804L82.2488 118.207C82.1503 118.245 82.0101 118.283 81.8283 118.321C81.6465 118.363 81.4192 118.385 81.1465 118.389C80.6995 118.397 80.2828 118.317 79.8965 118.15C79.5101 117.984 79.1976 117.726 78.959 117.378C78.7203 117.029 78.601 116.592 78.601 116.065V107.457ZM90.1281 111.679L88.5883 111.952C88.5239 111.755 88.4216 111.567 88.2815 111.389C88.1451 111.211 87.9595 111.065 87.7247 110.952C87.4898 110.838 87.1963 110.781 86.844 110.781C86.3629 110.781 85.9614 110.889 85.6394 111.105C85.3175 111.317 85.1565 111.592 85.1565 111.929C85.1565 112.22 85.2644 112.455 85.4803 112.633C85.6963 112.811 86.0447 112.957 86.5258 113.071L87.9122 113.389C88.7152 113.575 89.3137 113.861 89.7076 114.247C90.1016 114.633 90.2985 115.135 90.2985 115.753C90.2985 116.275 90.147 116.741 89.844 117.15C89.5447 117.556 89.1262 117.874 88.5883 118.105C88.0542 118.336 87.4349 118.452 86.7303 118.452C85.7531 118.452 84.9557 118.243 84.3383 117.827C83.7209 117.406 83.3421 116.809 83.2019 116.037L84.844 115.787C84.9463 116.215 85.1565 116.539 85.4747 116.758C85.7928 116.974 86.2076 117.082 86.719 117.082C87.2758 117.082 87.7209 116.967 88.0542 116.736C88.3875 116.501 88.5542 116.215 88.5542 115.878C88.5542 115.605 88.4519 115.376 88.2474 115.19C88.0466 115.005 87.7379 114.864 87.3213 114.77L85.844 114.446C85.0296 114.26 84.4273 113.965 84.0372 113.559C83.6508 113.154 83.4576 112.641 83.4576 112.02C83.4576 111.505 83.6016 111.054 83.8894 110.667C84.1773 110.281 84.575 109.98 85.0826 109.764C85.5902 109.544 86.1716 109.434 86.8269 109.434C87.7701 109.434 88.5125 109.639 89.0542 110.048C89.5959 110.453 89.9538 110.997 90.1281 111.679Z" fill="white"/>
  <path d="M56.7045 172.15V170.639H65.7102V172.15H62.0795V182.275H60.3295V172.15H56.7045ZM68.6762 182.469C68.1232 182.469 67.6232 182.366 67.1762 182.162C66.7292 181.953 66.3751 181.652 66.1137 181.258C65.8561 180.864 65.7273 180.381 65.7273 179.809C65.7273 179.317 65.822 178.912 66.0114 178.594C66.2008 178.275 66.4565 178.023 66.7785 177.838C67.1004 177.652 67.4603 177.512 67.858 177.417C68.2557 177.323 68.661 177.251 69.0739 177.202C69.5966 177.141 70.0209 177.092 70.3466 177.054C70.6724 177.012 70.9091 176.946 71.0569 176.855C71.2046 176.764 71.2785 176.616 71.2785 176.412V176.372C71.2785 175.876 71.1383 175.491 70.858 175.219C70.5815 174.946 70.1686 174.809 69.6194 174.809C69.0474 174.809 68.5966 174.936 68.2671 175.19C67.9413 175.44 67.716 175.719 67.591 176.025L65.9944 175.662C66.1838 175.131 66.4603 174.703 66.8239 174.378C67.1913 174.048 67.6137 173.809 68.091 173.662C68.5682 173.51 69.0701 173.434 69.5966 173.434C69.9451 173.434 70.3145 173.476 70.7046 173.559C71.0985 173.639 71.466 173.787 71.8069 174.003C72.1516 174.219 72.4338 174.527 72.6535 174.929C72.8732 175.327 72.983 175.844 72.983 176.48V182.275H71.3239V181.082H71.2557C71.1459 181.302 70.9811 181.518 70.7614 181.73C70.5417 181.942 70.2595 182.118 69.9148 182.258C69.5701 182.398 69.1573 182.469 68.6762 182.469ZM69.0455 181.105C69.5152 181.105 69.9167 181.012 70.2501 180.827C70.5872 180.641 70.8429 180.398 71.0171 180.099C71.1951 179.796 71.2841 179.472 71.2841 179.128V178.003C71.2235 178.063 71.1061 178.12 70.9319 178.173C70.7614 178.222 70.5663 178.266 70.3466 178.304C70.127 178.338 69.9129 178.37 69.7046 178.4C69.4963 178.427 69.322 178.45 69.1819 178.469C68.8523 178.51 68.5512 178.58 68.2785 178.679C68.0095 178.777 67.7936 178.919 67.6307 179.105C67.4716 179.287 67.3921 179.529 67.3921 179.832C67.3921 180.253 67.5474 180.571 67.858 180.787C68.1686 180.999 68.5645 181.105 69.0455 181.105ZM81.5456 175.679L80.0058 175.952C79.9414 175.755 79.8391 175.567 79.699 175.389C79.5626 175.211 79.377 175.065 79.1422 174.952C78.9073 174.838 78.6138 174.781 78.2615 174.781C77.7804 174.781 77.3789 174.889 77.0569 175.105C76.735 175.317 76.574 175.592 76.574 175.929C76.574 176.22 76.6819 176.455 76.8978 176.633C77.1138 176.811 77.4622 176.957 77.9433 177.071L79.3297 177.389C80.1327 177.575 80.7312 177.861 81.1251 178.247C81.5191 178.633 81.716 179.135 81.716 179.753C81.716 180.275 81.5645 180.741 81.2615 181.15C80.9622 181.556 80.5437 181.874 80.0058 182.105C79.4717 182.336 78.8524 182.452 78.1478 182.452C77.1706 182.452 76.3732 182.243 75.7558 181.827C75.1384 181.406 74.7596 180.809 74.6194 180.037L76.2615 179.787C76.3638 180.215 76.574 180.539 76.8922 180.758C77.2103 180.974 77.6251 181.082 78.1365 181.082C78.6933 181.082 79.1384 180.967 79.4717 180.736C79.805 180.501 79.9717 180.215 79.9717 179.878C79.9717 179.605 79.8694 179.376 79.6649 179.19C79.4641 179.005 79.1554 178.864 78.7388 178.77L77.2615 178.446C76.4471 178.26 75.8448 177.965 75.4547 177.559C75.0683 177.154 74.8751 176.641 74.8751 176.02C74.8751 175.505 75.0191 175.054 75.3069 174.667C75.5948 174.281 75.9925 173.98 76.5001 173.764C77.0077 173.544 77.5891 173.434 78.2444 173.434C79.1876 173.434 79.93 173.639 80.4717 174.048C81.0134 174.453 81.3713 174.997 81.5456 175.679ZM84.9064 179.315L84.8951 177.241H85.1905L88.6678 173.548H90.7019L86.736 177.753H86.4689L84.9064 179.315ZM83.3439 182.275V170.639H85.0428V182.275H83.3439ZM88.8553 182.275L85.7303 178.128L86.9007 176.94L90.9405 182.275H88.8553ZM98.5499 175.679L97.0102 175.952C96.9458 175.755 96.8435 175.567 96.7034 175.389C96.567 175.211 96.3814 175.065 96.1465 174.952C95.9117 174.838 95.6181 174.781 95.2659 174.781C94.7848 174.781 94.3833 174.889 94.0613 175.105C93.7393 175.317 93.5784 175.592 93.5784 175.929C93.5784 176.22 93.6863 176.455 93.9022 176.633C94.1181 176.811 94.4666 176.957 94.9477 177.071L96.334 177.389C97.1371 177.575 97.7356 177.861 98.1295 178.247C98.5234 178.633 98.7204 179.135 98.7204 179.753C98.7204 180.275 98.5689 180.741 98.2659 181.15C97.9666 181.556 97.5481 181.874 97.0102 182.105C96.4761 182.336 95.8568 182.452 95.1522 182.452C94.1749 182.452 93.3776 182.243 92.7602 181.827C92.1427 181.406 91.764 180.809 91.6238 180.037L93.2659 179.787C93.3681 180.215 93.5784 180.539 93.8965 180.758C94.2147 180.974 94.6295 181.082 95.1409 181.082C95.6977 181.082 96.1427 180.967 96.4761 180.736C96.8094 180.501 96.9761 180.215 96.9761 179.878C96.9761 179.605 96.8738 179.376 96.6693 179.19C96.4685 179.005 96.1598 178.864 95.7431 178.77L94.2659 178.446C93.4515 178.26 92.8492 177.965 92.459 177.559C92.0727 177.154 91.8795 176.641 91.8795 176.02C91.8795 175.505 92.0234 175.054 92.3113 174.667C92.5992 174.281 92.9969 173.98 93.5045 173.764C94.0121 173.544 94.5935 173.434 95.2488 173.434C96.192 173.434 96.9344 173.639 97.4761 174.048C98.0177 174.453 98.3757 174.997 98.5499 175.679Z" fill="white"/>
  <path d="M57.2784 246.275V234.639H61.5398C62.3655 234.639 63.0492 234.775 63.5909 235.048C64.1326 235.317 64.5379 235.683 64.8068 236.145C65.0758 236.603 65.2102 237.12 65.2102 237.696C65.2102 238.181 65.1212 238.59 64.9432 238.923C64.7652 239.253 64.5265 239.518 64.2273 239.719C63.9318 239.916 63.6061 240.059 63.25 240.15V240.264C63.6364 240.283 64.0133 240.408 64.3807 240.639C64.7519 240.866 65.0587 241.19 65.3011 241.611C65.5436 242.031 65.6648 242.542 65.6648 243.145C65.6648 243.739 65.5246 244.273 65.2443 244.747C64.9678 245.217 64.5398 245.59 63.9602 245.866C63.3807 246.139 62.6402 246.275 61.7386 246.275H57.2784ZM59.0341 244.77H61.5682C62.4091 244.77 63.0114 244.607 63.375 244.281C63.7386 243.955 63.9205 243.548 63.9205 243.059C63.9205 242.692 63.8277 242.355 63.642 242.048C63.4564 241.741 63.1913 241.497 62.8466 241.315C62.5057 241.133 62.1004 241.042 61.6307 241.042H59.0341V244.77ZM59.0341 239.673H61.3864C61.7803 239.673 62.1345 239.597 62.4489 239.446C62.767 239.294 63.0189 239.082 63.2045 238.809C63.3939 238.533 63.4886 238.207 63.4886 237.832C63.4886 237.351 63.3201 236.948 62.983 236.622C62.6458 236.296 62.1288 236.133 61.4318 236.133H59.0341V239.673ZM71.0469 246.452C70.2288 246.452 69.5147 246.264 68.9049 245.889C68.295 245.514 67.8216 244.989 67.4844 244.315C67.1473 243.641 66.9788 242.853 66.9788 241.952C66.9788 241.046 67.1473 240.255 67.4844 239.577C67.8216 238.898 68.295 238.372 68.9049 237.997C69.5147 237.622 70.2288 237.434 71.0469 237.434C71.8651 237.434 72.5791 237.622 73.189 237.997C73.7988 238.372 74.2723 238.898 74.6094 239.577C74.9466 240.255 75.1151 241.046 75.1151 241.952C75.1151 242.853 74.9466 243.641 74.6094 244.315C74.2723 244.989 73.7988 245.514 73.189 245.889C72.5791 246.264 71.8651 246.452 71.0469 246.452ZM71.0526 245.025C71.5829 245.025 72.0223 244.885 72.3708 244.605C72.7193 244.325 72.9769 243.952 73.1435 243.486C73.314 243.02 73.3992 242.506 73.3992 241.946C73.3992 241.389 73.314 240.878 73.1435 240.412C72.9769 239.942 72.7193 239.565 72.3708 239.281C72.0223 238.997 71.5829 238.855 71.0526 238.855C70.5185 238.855 70.0753 238.997 69.7231 239.281C69.3746 239.565 69.1151 239.942 68.9447 240.412C68.778 240.878 68.6947 241.389 68.6947 241.946C68.6947 242.506 68.778 243.02 68.9447 243.486C69.1151 243.952 69.3746 244.325 69.7231 244.605C70.0753 244.885 70.5185 245.025 71.0526 245.025ZM80.4476 246.452C79.6294 246.452 78.9154 246.264 78.3055 245.889C77.6957 245.514 77.2222 244.989 76.8851 244.315C76.5479 243.641 76.3794 242.853 76.3794 241.952C76.3794 241.046 76.5479 240.255 76.8851 239.577C77.2222 238.898 77.6957 238.372 78.3055 237.997C78.9154 237.622 79.6294 237.434 80.4476 237.434C81.2657 237.434 81.9798 237.622 82.5896 237.997C83.1995 238.372 83.6729 238.898 84.0101 239.577C84.3472 240.255 84.5157 241.046 84.5157 241.952C84.5157 242.853 84.3472 243.641 84.0101 244.315C83.6729 244.989 83.1995 245.514 82.5896 245.889C81.9798 246.264 81.2657 246.452 80.4476 246.452ZM80.4532 245.025C80.9835 245.025 81.4229 244.885 81.7714 244.605C82.1199 244.325 82.3775 243.952 82.5441 243.486C82.7146 243.02 82.7998 242.506 82.7998 241.946C82.7998 241.389 82.7146 240.878 82.5441 240.412C82.3775 239.942 82.1199 239.565 81.7714 239.281C81.4229 238.997 80.9835 238.855 80.4532 238.855C79.9191 238.855 79.476 238.997 79.1237 239.281C78.7752 239.565 78.5157 239.942 78.3453 240.412C78.1786 240.878 78.0953 241.389 78.0953 241.946C78.0953 242.506 78.1786 243.02 78.3453 243.486C78.5157 243.952 78.7752 244.325 79.1237 244.605C79.476 244.885 79.9191 245.025 80.4532 245.025ZM87.7345 243.315L87.7232 241.241H88.0186L91.4959 237.548H93.53L89.5641 241.753H89.297L87.7345 243.315ZM86.172 246.275V234.639H87.8709V246.275H86.172ZM91.6834 246.275L88.5584 242.128L89.7289 240.94L93.7686 246.275H91.6834ZM94.8383 246.275V237.548H96.469V238.969H96.5769C96.7588 238.488 97.0561 238.113 97.469 237.844C97.8819 237.571 98.3762 237.434 98.9519 237.434C99.5353 237.434 100.024 237.571 100.418 237.844C100.816 238.116 101.109 238.491 101.299 238.969H101.389C101.598 238.503 101.929 238.131 102.384 237.855C102.838 237.575 103.38 237.434 104.009 237.434C104.8 237.434 105.446 237.683 105.946 238.179C106.45 238.675 106.702 239.423 106.702 240.423V246.275H105.003V240.582C105.003 239.991 104.842 239.563 104.52 239.298C104.198 239.033 103.814 238.9 103.367 238.9C102.814 238.9 102.384 239.071 102.077 239.412C101.77 239.749 101.617 240.183 101.617 240.713V246.275H99.9235V240.474C99.9235 240.001 99.7758 239.62 99.4803 239.332C99.1849 239.044 98.8004 238.9 98.3269 238.9C98.005 238.9 97.7076 238.986 97.4349 239.156C97.1659 239.323 96.9481 239.556 96.7815 239.855C96.6186 240.154 96.5372 240.501 96.5372 240.895V246.275H94.8383ZM111.279 246.469C110.726 246.469 110.226 246.366 109.779 246.162C109.332 245.953 108.978 245.652 108.716 245.258C108.459 244.864 108.33 244.381 108.33 243.809C108.33 243.317 108.425 242.912 108.614 242.594C108.803 242.275 109.059 242.023 109.381 241.838C109.703 241.652 110.063 241.512 110.461 241.417C110.858 241.323 111.264 241.251 111.676 241.202C112.199 241.141 112.623 241.092 112.949 241.054C113.275 241.012 113.512 240.946 113.659 240.855C113.807 240.764 113.881 240.616 113.881 240.412V240.372C113.881 239.876 113.741 239.491 113.461 239.219C113.184 238.946 112.771 238.809 112.222 238.809C111.65 238.809 111.199 238.936 110.87 239.19C110.544 239.44 110.318 239.719 110.193 240.025L108.597 239.662C108.786 239.131 109.063 238.703 109.426 238.378C109.794 238.048 110.216 237.809 110.693 237.662C111.171 237.51 111.673 237.434 112.199 237.434C112.548 237.434 112.917 237.476 113.307 237.559C113.701 237.639 114.068 237.787 114.409 238.003C114.754 238.219 115.036 238.527 115.256 238.929C115.476 239.327 115.586 239.844 115.586 240.48V246.275H113.926V245.082H113.858C113.748 245.302 113.584 245.518 113.364 245.73C113.144 245.942 112.862 246.118 112.517 246.258C112.173 246.398 111.76 246.469 111.279 246.469ZM111.648 245.105C112.118 245.105 112.519 245.012 112.853 244.827C113.19 244.641 113.445 244.398 113.62 244.099C113.798 243.796 113.887 243.472 113.887 243.128V242.003C113.826 242.063 113.709 242.12 113.534 242.173C113.364 242.222 113.169 242.266 112.949 242.304C112.729 242.338 112.515 242.37 112.307 242.4C112.099 242.427 111.925 242.45 111.784 242.469C111.455 242.51 111.154 242.58 110.881 242.679C110.612 242.777 110.396 242.919 110.233 243.105C110.074 243.287 109.995 243.529 109.995 243.832C109.995 244.253 110.15 244.571 110.461 244.787C110.771 244.999 111.167 245.105 111.648 245.105ZM117.608 246.275V237.548H119.25V238.934H119.341C119.5 238.465 119.781 238.095 120.182 237.827C120.587 237.554 121.046 237.417 121.557 237.417C121.663 237.417 121.788 237.421 121.932 237.429C122.08 237.436 122.195 237.446 122.279 237.457V239.082C122.211 239.063 122.089 239.042 121.915 239.02C121.741 238.993 121.567 238.98 121.392 238.98C120.991 238.98 120.633 239.065 120.319 239.236C120.008 239.402 119.762 239.635 119.58 239.934C119.398 240.23 119.307 240.567 119.307 240.946V246.275H117.608ZM125.071 243.315L125.06 241.241H125.356L128.833 237.548H130.867L126.901 241.753H126.634L125.071 243.315ZM123.509 246.275V234.639H125.208V246.275H123.509ZM129.02 246.275L125.895 242.128L127.066 240.94L131.106 246.275H129.02ZM138.715 239.679L137.175 239.952C137.111 239.755 137.009 239.567 136.868 239.389C136.732 239.211 136.546 239.065 136.312 238.952C136.077 238.838 135.783 238.781 135.431 238.781C134.95 238.781 134.548 238.889 134.226 239.105C133.904 239.317 133.743 239.592 133.743 239.929C133.743 240.22 133.851 240.455 134.067 240.633C134.283 240.811 134.632 240.957 135.113 241.071L136.499 241.389C137.302 241.575 137.901 241.861 138.294 242.247C138.688 242.633 138.885 243.135 138.885 243.753C138.885 244.275 138.734 244.741 138.431 245.15C138.132 245.556 137.713 245.874 137.175 246.105C136.641 246.336 136.022 246.452 135.317 246.452C134.34 246.452 133.543 246.243 132.925 245.827C132.308 245.406 131.929 244.809 131.789 244.037L133.431 243.787C133.533 244.215 133.743 244.539 134.062 244.758C134.38 244.974 134.794 245.082 135.306 245.082C135.863 245.082 136.308 244.967 136.641 244.736C136.974 244.501 137.141 244.215 137.141 243.878C137.141 243.605 137.039 243.376 136.834 243.19C136.634 243.005 136.325 242.864 135.908 242.77L134.431 242.446C133.616 242.26 133.014 241.965 132.624 241.559C132.238 241.154 132.044 240.641 132.044 240.02C132.044 239.505 132.188 239.054 132.476 238.667C132.764 238.281 133.162 237.98 133.669 237.764C134.177 237.544 134.759 237.434 135.414 237.434C136.357 237.434 137.099 237.639 137.641 238.048C138.183 238.453 138.541 238.997 138.715 239.679Z" fill="white"/>
  <path fill-rule="evenodd" clip-rule="evenodd" d="M252.22 54.0645C251.927 53.7833 251.927 53.3275 252.22 53.0463L257.189 48.2754L252.22 43.5045C251.927 43.2233 251.927 42.7675 252.22 42.4863C252.513 42.2051 252.987 42.2051 253.28 42.4863L259.311 48.2754L253.28 54.0645C252.987 54.3457 252.513 54.3457 252.22 54.0645Z" fill="#A7A7A7"/>
  <path fill-rule="evenodd" clip-rule="evenodd" d="M252.22 118.065C251.927 117.783 251.927 117.327 252.22 117.046L257.189 112.275L252.22 107.505C251.927 107.223 251.927 106.767 252.22 106.486C252.513 106.205 252.987 106.205 253.28 106.486L259.311 112.275L253.28 118.065C252.987 118.346 252.513 118.346 252.22 118.065Z" fill="#A7A7A7"/>
  <path fill-rule="evenodd" clip-rule="evenodd" d="M252.22 182.065C251.927 181.783 251.927 181.327 252.22 181.046L257.189 176.275L252.22 171.505C251.927 171.223 251.927 170.767 252.22 170.486C252.513 170.205 252.987 170.205 253.28 170.486L259.311 176.275L253.28 182.065C252.987 182.346 252.513 182.346 252.22 182.065Z" fill="#A7A7A7"/>
  <path fill-rule="evenodd" clip-rule="evenodd" d="M252.22 246.065C251.927 245.783 251.927 245.327 252.22 245.046L257.189 240.275L252.22 235.505C251.927 235.223 251.927 234.767 252.22 234.486C252.513 234.205 252.987 234.205 253.28 234.486L259.311 240.275L253.28 246.065C252.987 246.346 252.513 246.346 252.22 246.065Z" fill="#A7A7A7"/>
</svg>
